<svg width="121" height="89" viewBox="0 0 121 89" fill="none" xmlns="http://www.w3.org/2000/svg">
    <path d="M57.7 9.5V25.1H38.9V80H19.3V25.1H0.7V9.5H57.7ZM120.852 59.4C120.852 63.2 119.818 66.7 117.752 69.9C115.752 73.0333 112.785 75.5667 108.852 77.5C104.985 79.4333 100.318 80.5 94.8516 80.7V88.7H88.5516V80.5C81.2182 79.8333 75.2182 77.6 70.5516 73.8C65.9516 70 63.5182 64.8333 63.2516 58.3H84.1516C84.4182 61.7 85.8849 63.9333 88.5516 65V52.2C82.9516 50.6667 78.5516 49.2667 75.3516 48C72.1516 46.6667 69.2849 44.5333 66.7516 41.6C64.2849 38.6667 63.0516 34.6667 63.0516 29.6C63.0516 25.4 64.1516 21.7667 66.3516 18.7C68.6182 15.5667 71.6849 13.1667 75.5516 11.5C79.4182 9.76666 83.7516 8.76666 88.5516 8.5V0.399994H94.8516V8.5C102.252 9.03333 108.118 11.1667 112.452 14.9C116.852 18.6333 119.285 23.7667 119.752 30.3H98.6516C98.3849 27.2333 97.1182 25.2 94.8516 24.2V36.9L97.3516 37.7C102.152 39.0333 106.118 40.4333 109.252 41.9C112.452 43.3 115.185 45.4333 117.452 48.3C119.718 51.1 120.852 54.8 120.852 59.4ZM83.9516 28.7C83.9516 31.1 85.4849 33.0667 88.5516 34.6V23.6C85.4849 24.1333 83.9516 25.8333 83.9516 28.7ZM94.8516 65.5C96.4516 65.1667 97.7182 64.5333 98.6516 63.6C99.5849 62.6 100.052 61.3667 100.052 59.9C100.052 57.5667 98.3182 55.6667 94.8516 54.2V65.5Z"
          fill="#111"/>
    <style>
        @media (prefers-color-scheme: dark) {
        path { fill: white; }
        }
    </style>
</svg>